<svg width="128" height="32" viewBox="0 0 128 32" fill="none" xmlns="http://www.w3.org/2000/svg">
<path d="M6.28516 22.3672C8.58984 22.0938 10.4128 21.4948 11.7539 20.5703C13.0951 19.6328 13.7656 18.5065 13.7656 17.1914C13.7656 16.6055 13.6094 16.1497 13.2969 15.8242C12.9844 15.4857 12.5547 15.3164 12.0078 15.3164C11.2526 15.3164 9.76172 16.2279 7.53516 18.0508L6.92969 18.5586L6.28516 22.3672ZM0.132812 31.5664C0.549479 29.7174 0.959635 27.7513 1.36328 25.668C1.76693 23.5846 2.18359 21.293 2.61328 18.793L3.19922 15.1992C3.90234 11.0977 4.35807 8.36328 4.56641 6.99609C4.77474 5.61589 4.87891 4.76302 4.87891 4.4375C4.87891 4.0599 4.76823 3.76693 4.54688 3.55859C4.32552 3.35026 4.01302 3.24609 3.60938 3.24609C3.46615 3.24609 3.20573 3.25911 2.82812 3.28516C2.6849 3.29818 2.57422 3.3112 2.49609 3.32422L2.32031 1.80078C3.71354 1.69661 5.07422 1.54688 6.40234 1.35156C7.73047 1.14323 9.05208 0.882812 10.3672 0.570312C10.25 1.15625 9.97656 2.49089 9.54688 4.57422C9.13021 6.64453 8.80469 8.29167 8.57031 9.51562L7.24219 16.3125L7.65234 15.9609C10.569 13.2656 12.7565 11.918 14.2148 11.918C15.2174 11.918 16.0768 12.3281 16.793 13.1484C17.5221 13.9557 17.8867 14.9193 17.8867 16.0391C17.8867 17.5104 17.3919 18.7669 16.4023 19.8086C15.4128 20.8503 13.8958 21.7161 11.8516 22.4062C13.2969 24.6198 14.4102 26.1628 15.1914 27.0352C15.9727 27.8945 16.6302 28.3242 17.1641 28.3242C17.4115 28.3242 17.7044 28.2201 18.043 28.0117C18.3815 27.7904 18.8242 27.4258 19.3711 26.918L20.0547 28.2852C18.6224 29.6784 17.5807 30.5703 16.9297 30.9609C16.2917 31.3385 15.6536 31.5273 15.0156 31.5273C13.9349 31.5273 12.8346 30.9154 11.7148 29.6914C10.5951 28.4544 9.33203 26.4622 7.92578 23.7148C7.57422 23.806 7.23568 23.8841 6.91016 23.9492C6.58464 24.0013 6.27214 24.0469 5.97266 24.0859L5.67969 25.6875C5.5625 26.2865 5.36719 27.6862 5.09375 29.8867L5.01562 30.5117L0.132812 31.5664ZM29.3711 29.2812C30.8555 29.2812 32.1055 28.2852 33.1211 26.293C34.1367 24.3008 34.6445 21.8464 34.6445 18.9297C34.6445 17.4323 34.3906 16.2995 33.8828 15.5312C33.375 14.75 32.6328 14.3594 31.6562 14.3594C30.1198 14.3594 28.8307 15.3359 27.7891 17.2891C26.7604 19.2292 26.2461 21.6771 26.2461 24.6328C26.2461 26.1562 26.513 27.3151 27.0469 28.1094C27.5807 28.8906 28.3555 29.2812 29.3711 29.2812ZM21.4219 24.2812C21.4219 22.5104 21.7865 20.7982 22.5156 19.1445C23.2578 17.4909 24.306 16.0456 25.6602 14.8086C26.6628 13.8711 27.75 13.1615 28.9219 12.6797C30.1068 12.1979 31.3242 11.957 32.5742 11.957C34.7227 11.957 36.4089 12.6016 37.6328 13.8906C38.8698 15.1797 39.4883 16.9505 39.4883 19.2031C39.4883 22.5625 38.3945 25.4792 36.207 27.9531C34.0326 30.4141 31.4219 31.6445 28.375 31.6445C26.2266 31.6445 24.5273 30.987 23.2773 29.6719C22.0404 28.3438 21.4219 26.5469 21.4219 24.2812ZM54.8789 16.1172L53.6484 17.1523C52.8542 16.1758 52.1445 15.4727 51.5195 15.043C50.8945 14.6133 50.2565 14.3984 49.6055 14.3984C48.9935 14.3984 48.4792 14.5807 48.0625 14.9453C47.6458 15.3099 47.4375 15.7526 47.4375 16.2734C47.4375 16.7943 47.6523 17.3021 48.082 17.7969C48.5117 18.2917 49.3646 18.9753 50.6406 19.8477L50.9531 20.043C53.5443 21.7487 54.8398 23.2917 54.8398 24.6719C54.8398 26.5208 54.013 28.1354 52.3594 29.5156C50.7188 30.8828 48.7591 31.5664 46.4805 31.5664C45.0221 31.5664 43.8112 31.2865 42.8477 30.7266C41.8841 30.1536 41.4023 29.457 41.4023 28.6367C41.4023 28.3242 41.474 28.0378 41.6172 27.7773C41.7604 27.5169 41.9948 27.2565 42.3203 26.9961L43.5703 26C44.4167 27.1458 45.1914 27.9661 45.8945 28.4609C46.5977 28.9557 47.3398 29.2031 48.1211 29.2031C48.8372 29.2031 49.4297 29.0013 49.8984 28.5977C50.3672 28.181 50.6016 27.6602 50.6016 27.0352C50.6016 26.1107 49.4753 24.8867 47.2227 23.3633L46.8516 23.1289C45.4453 22.1914 44.4818 21.3711 43.9609 20.668C43.4531 19.9518 43.1992 19.1576 43.1992 18.2852C43.1992 16.6055 44.013 15.1406 45.6406 13.8906C47.2682 12.6276 49.2279 11.9961 51.5195 11.9961C52.6784 11.9961 53.6615 12.263 54.4688 12.7969C55.276 13.3177 55.6797 13.9297 55.6797 14.6328C55.6797 14.8932 55.6081 15.1536 55.4648 15.4141C55.3346 15.6745 55.1393 15.9089 54.8789 16.1172ZM62.8477 21.918L63.043 21.8203C67.2357 19.7109 69.332 18.0117 69.332 16.7227C69.332 16.0977 69.1042 15.5508 68.6484 15.082C68.1927 14.6003 67.6589 14.3594 67.0469 14.3594C66.0573 14.3594 65.1914 15.0234 64.4492 16.3516C63.707 17.6667 63.1732 19.5221 62.8477 21.918ZM68.6094 21.0391L62.7695 23.832V24.3594C62.7695 25.5833 63.0104 26.5469 63.4922 27.25C63.987 27.9401 64.6641 28.2852 65.5234 28.2852C66.1615 28.2852 66.9167 28.0378 67.7891 27.543C68.6615 27.0352 69.7617 26.2148 71.0898 25.082L71.8516 26.7227C70.0547 28.4154 68.4792 29.6523 67.125 30.4336C65.7708 31.2148 64.5339 31.6055 63.4141 31.6055C61.8125 31.6055 60.5234 30.9805 59.5469 29.7305C58.5703 28.4805 58.082 26.8073 58.082 24.7109C58.082 23.3568 58.3424 21.9049 58.8633 20.3555C59.3841 18.806 60.0742 17.4453 60.9336 16.2734C61.9362 14.8932 63.0755 13.832 64.3516 13.0898C65.6406 12.3346 66.9557 11.957 68.2969 11.957C69.7161 11.957 70.9076 12.3867 71.8711 13.2461C72.8477 14.0924 73.3359 15.1146 73.3359 16.3125C73.3359 17.9271 71.7865 19.4896 68.6875 21L68.6094 21.0391ZM95.4062 27.6406L92.8867 29.8477C92.2357 30.3945 91.6562 30.7982 91.1484 31.0586C90.6406 31.319 90.1523 31.4492 89.6836 31.4492C88.9154 31.4492 88.2904 31.1432 87.8086 30.5312C87.3268 29.9062 87.0859 29.0859 87.0859 28.0703C87.0859 27.7318 87.099 27.3867 87.125 27.0352C87.151 26.6836 87.1901 26.3385 87.2422 26C84.9245 28.2526 83.2253 29.75 82.1445 30.4922C81.0768 31.2344 80.1784 31.6055 79.4492 31.6055C78.5768 31.6055 77.8411 31.2148 77.2422 30.4336C76.6562 29.6523 76.3633 28.6562 76.3633 27.4453C76.3633 26.3776 76.7344 24.3919 77.4766 21.4883C77.5677 21.1367 77.6393 20.8633 77.6914 20.668C78.0169 19.3789 78.2513 18.4219 78.3945 17.7969C78.5378 17.1719 78.6094 16.7617 78.6094 16.5664C78.6094 16.2148 78.5443 15.9479 78.4141 15.7656C78.2839 15.5703 78.0951 15.4727 77.8477 15.4727C77.6654 15.4727 77.3464 15.5638 76.8906 15.7461C76.4349 15.9284 75.9401 16.1758 75.4062 16.4883L74.8789 15.1211L75.5234 14.7109C78.2057 12.9792 79.9115 12.1133 80.6406 12.1133C81.3698 12.1133 81.9557 12.3932 82.3984 12.9531C82.8542 13.5 83.082 14.2227 83.082 15.1211C83.082 16.2279 82.737 18.0247 82.0469 20.5117C81.3568 22.9987 81.0117 24.763 81.0117 25.8047C81.0117 26.3255 81.1029 26.7161 81.2852 26.9766C81.4674 27.237 81.7474 27.3672 82.125 27.3672C82.5547 27.3672 83.2188 27.0417 84.1172 26.3906C85.0156 25.7396 86.1484 24.7565 87.5156 23.4414C87.8411 21.944 88.1536 20.362 88.4531 18.6953C88.7526 17.0156 89.0716 15.1406 89.4102 13.0703L94.293 12.1133C94.1497 12.6341 93.9414 13.4935 93.668 14.6914C93.4076 15.8893 93.0951 17.4062 92.7305 19.2422L92.2422 21.6055C91.9688 22.9857 91.7669 24.0924 91.6367 24.9258C91.5065 25.7461 91.4414 26.3581 91.4414 26.7617C91.4414 27.1263 91.5 27.4062 91.6172 27.6016C91.7474 27.7839 91.9297 27.875 92.1641 27.875C92.3854 27.875 92.7174 27.7318 93.1602 27.4453C93.6159 27.1589 94.1628 26.7292 94.8008 26.1562L95.4062 27.6406ZM97.6328 31.5273C97.8672 30.4857 98.0951 29.3724 98.3164 28.1875C98.5508 27.0026 98.8307 25.4987 99.1562 23.6758L99.5664 21.4492C99.7227 20.4857 99.8464 19.6589 99.9375 18.9688C100.029 18.2656 100.074 17.7318 100.074 17.3672C100.074 16.8464 99.9961 16.4688 99.8398 16.2344C99.6836 16 99.4297 15.8828 99.0781 15.8828C98.8438 15.8828 98.5638 15.9479 98.2383 16.0781C97.9128 16.2083 97.5547 16.3971 97.1641 16.6445L96.5586 15.2383C97.0013 14.9388 97.6003 14.5221 98.3555 13.9883C100.243 12.6341 101.526 11.957 102.203 11.957C102.906 11.957 103.486 12.2565 103.941 12.8555C104.41 13.4544 104.645 14.2227 104.645 15.1602C104.645 15.5508 104.566 16.2669 104.41 17.3086C104.371 17.569 104.339 17.7708 104.312 17.9141C104.547 17.6797 104.879 17.3281 105.309 16.8594C108.421 13.5911 110.543 11.957 111.676 11.957C112.613 11.957 113.355 12.3477 113.902 13.1289C114.449 13.9102 114.723 14.9844 114.723 16.3516C114.723 16.612 114.71 16.8724 114.684 17.1328C114.671 17.3932 114.645 17.6667 114.605 17.9531L115.367 17.1328C118.583 13.6823 120.803 11.957 122.027 11.957C123.004 11.957 123.779 12.3021 124.352 12.9922C124.938 13.6823 125.23 14.6198 125.23 15.8047C125.23 17.0547 124.918 18.9492 124.293 21.4883C123.668 24.0143 123.355 25.7852 123.355 26.8008C123.355 27.1523 123.427 27.4323 123.57 27.6406C123.714 27.849 123.896 27.9531 124.117 27.9531C124.339 27.9531 124.658 27.8034 125.074 27.5039C125.491 27.2044 126.012 26.7552 126.637 26.1562L127.281 27.6406L127.086 27.8164C124.417 30.2904 122.613 31.5273 121.676 31.5273C120.803 31.5273 120.126 31.2018 119.645 30.5508C119.163 29.8997 118.922 28.9948 118.922 27.8359C118.922 26.599 119.202 24.763 119.762 22.3281C120.322 19.8932 120.602 18.1549 120.602 17.1133C120.602 16.7487 120.523 16.4557 120.367 16.2344C120.224 16 120.035 15.8828 119.801 15.8828C119.202 15.8828 117.828 16.8984 115.68 18.9297C115.12 19.4505 114.677 19.8607 114.352 20.1602C114.273 20.6549 114.15 21.3711 113.98 22.3086C113.29 26.293 112.867 29.0404 112.711 30.5508L107.965 31.5273C109.033 25.9935 109.703 22.3802 109.977 20.6875C110.263 18.9818 110.406 17.7904 110.406 17.1133C110.406 16.7487 110.322 16.4557 110.152 16.2344C109.983 16 109.768 15.8828 109.508 15.8828C108.922 15.8828 107.574 16.8659 105.465 18.832C104.853 19.4049 104.378 19.8477 104.039 20.1602C103.596 22.4648 103.238 24.4505 102.965 26.1172C102.704 27.7708 102.503 29.2357 102.359 30.5117L97.6328 31.5273Z" fill="white"/>
</svg>
